<svg id="background" xmlns="http://www.w3.org/2000/svg" viewBox="0 0 200 200"><defs><style>.cls-1{fill:#30a976;}.cls-2{fill:#54d65f;}.cls-3{fill:#40c96a;}.cls-4{fill:#40c791;}</style></defs><title>circles</title><rect class="cls-1" width="200" height="200"/><g id="Layer_2" data-name="Layer 2"><circle class="cls-2" cx="87.67" cy="100" r="20"/></g><g id="Layer_2_copy" data-name="Layer 2 copy"><circle class="cls-2" cx="160" cy="80" r="20"/></g><g id="Layer_2_copy_2" data-name="Layer 2 copy 2"><circle class="cls-2" cx="144" cy="164.67" r="20"/></g><g id="Layer_2_copy_3" data-name="Layer 2 copy 3"><circle class="cls-2" cx="22.5" cy="53.5" r="17.5"/></g><g id="Layer_2_copy_4" data-name="Layer 2 copy 4"><circle class="cls-2" cx="110.17" cy="25.83" r="17.5"/></g><g id="Layer_2_copy_5" data-name="Layer 2 copy 5"><circle class="cls-2" cx="22.5" cy="180.17" r="17.5"/></g><g id="Layer_9" data-name="Layer 9"><circle class="cls-3" cx="84.33" cy="147.33" r="19"/></g><g id="Layer_9_copy" data-name="Layer 9 copy"><path class="cls-3" d="M85.5,0A19,19,0,1,1,50.16,0" transform="translate(0 0)"/><path class="cls-3" d="M50.16,200a19,19,0,0,1,35.34,0" transform="translate(0 0)"/></g><g id="Layer_10" data-name="Layer 10"><circle class="cls-3" cx="163.5" cy="127.83" r="15.5"/></g><g id="Layer_10_copy" data-name="Layer 10 copy"><circle class="cls-3" cx="184.17" cy="43.83" r="15.5"/></g><g id="Layer_10_copy_2" data-name="Layer 10 copy 2"><circle class="cls-3" cx="43.83" cy="92.17" r="15.5"/></g><g id="Layer_10_copy_3" data-name="Layer 10 copy 3"><circle class="cls-3" cx="120.17" cy="68.17" r="15.5"/></g><g id="Layer_16" data-name="Layer 16"><circle class="cls-4" cx="66.33" cy="50" r="14"/></g><g id="Layer_16_copy" data-name="Layer 16 copy"><circle class="cls-4" cx="105.75" cy="182.17" r="14"/></g><g id="Layer_16_copy_2" data-name="Layer 16 copy 2"><circle class="cls-4" cx="15.92" cy="16.83" r="14"/></g><g id="Layer_19" data-name="Layer 19"><circle class="cls-4" cx="39.37" cy="135.79" r="19"/></g><g id="Layer_19_copy_2" data-name="Layer 19 copy 2"><path class="cls-4" d="M200,119a19,19,0,0,1,0-38" transform="translate(0 0)"/><path class="cls-4" d="M0,81a19,19,0,0,1,19,19A19,19,0,0,1,0,119" transform="translate(0 0)"/></g><g id="Layer_19_copy" data-name="Layer 19 copy"><circle class="cls-4" cx="153.37" cy="18" r="18"/></g><g id="Layer_21" data-name="Layer 21"><circle class="cls-4" cx="184" cy="176.83" r="15"/></g><g id="Layer_22" data-name="Layer 22"><circle class="cls-4" cx="124.33" cy="120" r="12"/></g></svg>